<svg width="48" height="48" viewBox="0 0 48 48" fill="none" xmlns="http://www.w3.org/2000/svg">
<path d="M12 15.75C12 13.6789 13.6789 12 15.75 12H32.25C34.3211 12 36 13.6789 36 15.75V32.25C36 34.3211 34.3211 36 32.25 36H15.75C13.6789 36 12 34.3211 12 32.25V15.75Z" fill="white"/>
<path fill-rule="evenodd" clip-rule="evenodd" d="M15.75 10.5H32.25C35.1495 10.5 37.5 12.8505 37.5 15.75V32.25C37.5 35.1495 35.1495 37.5 32.25 37.5H15.75C12.8505 37.5 10.5 35.1495 10.5 32.25V15.75C10.5 12.8505 12.8505 10.5 15.75 10.5ZM15.75 12C13.6789 12 12 13.6789 12 15.75V32.25C12 34.3211 13.6789 36 15.75 36H32.25C34.3211 36 36 34.3211 36 32.25V15.75C36 13.6789 34.3211 12 32.25 12H15.75Z" fill="#003C1F"/>
<path d="M18.75 22.5C20.8211 22.5 22.5 20.8211 22.5 18.75C22.5 16.6789 20.8211 15 18.75 15C16.6789 15 15 16.6789 15 18.75C15 20.8211 16.6789 22.5 18.75 22.5Z" fill="#F85E41"/>
<path d="M29.25 22.5C31.3211 22.5 33 20.8211 33 18.75C33 16.6789 31.3211 15 29.25 15C27.1789 15 25.5 16.6789 25.5 18.75C25.5 20.8211 27.1789 22.5 29.25 22.5Z" fill="#F85E41"/>
<path d="M25.875 27C25.875 26.3787 26.3787 25.875 27 25.875H31.5C32.1213 25.875 32.625 26.3787 32.625 27V31.5C32.625 32.1213 32.1213 32.625 31.5 32.625H27C26.3787 32.625 25.875 32.1213 25.875 31.5V27Z" fill="white"/>
<path fill-rule="evenodd" clip-rule="evenodd" d="M27 25.125H31.5C32.5355 25.125 33.375 25.9645 33.375 27V31.5C33.375 32.5355 32.5355 33.375 31.5 33.375H27C25.9645 33.375 25.125 32.5355 25.125 31.5V27C25.125 25.9645 25.9645 25.125 27 25.125ZM27 25.875C26.3787 25.875 25.875 26.3787 25.875 27V31.5C25.875 32.1213 26.3787 32.625 27 32.625H31.5C32.1213 32.625 32.625 32.1213 32.625 31.5V27C32.625 26.3787 32.1213 25.875 31.5 25.875H27Z" fill="#F85E41"/>
</svg>
