<svg width="48" height="48" viewBox="0 0 48 48" fill="none" xmlns="http://www.w3.org/2000/svg">
<path d="M2.95809 7.49617C2.80032 7.86137 2.94508 8.24808 3.22639 8.52938L5.56398 10.867C6.53442 8.45746 8.4578 6.53412 10.8674 5.56374L8.52969 3.22608C8.24838 2.94478 7.86167 2.80001 7.49647 2.95778C6.97595 3.18266 6.11325 3.70318 4.90837 4.90806C3.70349 6.11294 3.18296 6.97564 2.95809 7.49617Z" fill="#F85E41"/>
<path d="M40.504 2.95778C40.1388 2.80001 39.7521 2.94478 39.4708 3.22608L37.1331 5.56379C39.5426 6.53421 41.4659 8.45757 42.4363 10.8671L44.7741 8.52938C45.0554 8.24808 45.2001 7.86137 45.0424 7.49617C44.8175 6.97564 44.297 6.11294 43.0921 4.90806C41.8872 3.70318 41.0245 3.18266 40.504 2.95778Z" fill="#F85E41"/>
<path d="M4.5 14.25C4.5 8.86519 8.86522 4.49997 14.25 4.49997H33.75C39.1348 4.49997 43.5 8.86519 43.5 14.25V33.75C43.5 39.1347 39.1348 43.5 33.75 43.5H14.25C8.86522 43.5 4.5 39.1347 4.5 33.75V14.25Z" fill="white"/>
<path fill-rule="evenodd" clip-rule="evenodd" d="M14.25 5.99997C9.69365 5.99997 6 9.69362 6 14.25V33.75C6 38.3063 9.69365 42 14.25 42H33.75C38.3063 42 42 38.3063 42 33.75V14.25C42 9.69362 38.3063 5.99997 33.75 5.99997H14.25ZM14.25 4.49997C8.86522 4.49997 4.5 8.86519 4.5 14.25V33.75C4.5 39.1347 8.86522 43.5 14.25 43.5H33.75C39.1348 43.5 43.5 39.1347 43.5 33.75V14.25C43.5 8.86519 39.1348 4.49997 33.75 4.49997H14.25Z" fill="#003C1F"/>
<path d="M22.5 12H27V13.5H22.5V12Z" fill="#F85E41"/>
<path d="M19.5 16.5V13.5H22.5V15H21V16.5H19.5Z" fill="#F85E41"/>
<path d="M19.5 21H18V16.5H19.5V21Z" fill="#F85E41"/>
<path d="M22.5 24H19.5V21H21V22.5H22.5V24Z" fill="#F85E41"/>
<path d="M27 24V25.5H22.5V24H27Z" fill="#F85E41"/>
<path d="M30 21V24H27V22.5H28.5V21H30Z" fill="#F85E41"/>
<path d="M30 16.5H31.5V21H30V16.5Z" fill="#F85E41"/>
<path d="M28.5 15H27V13.5H30V16.5H28.5V15Z" fill="#F85E41"/>
<path fill-rule="evenodd" clip-rule="evenodd" d="M28.5 28.5H24V36H28.5V28.5ZM27 34.5H25.5V30H27V34.5Z" fill="#F85E41"/>
<path fill-rule="evenodd" clip-rule="evenodd" d="M15 28.5H19.5V36H15V28.5ZM16.5 31.5H18V30H16.5V31.5ZM16.5 34.5H18V33H16.5V34.5Z" fill="#F85E41"/>
<path d="M21 33H22.5V34.5H21V33Z" fill="#F85E41"/>
<path fill-rule="evenodd" clip-rule="evenodd" d="M30 36V28.5H34.5V36H30ZM33 34.5V30H31.5V34.5H33Z" fill="#F85E41"/>
<path d="M22.5 30H21V31.5H22.5V30Z" fill="#F85E41"/>
</svg>
